<?xml version="1.0" standalone="no"?>
<!DOCTYPE svg PUBLIC "-//W3C//DTD SVG 20010904//EN"
 "http://www.w3.org/TR/2001/REC-SVG-20010904/DTD/svg10.dtd">
<svg version="1.0" xmlns="http://www.w3.org/2000/svg"
 width="700.000000pt" height="700.000000pt" viewBox="0 0 700.000000 700.000000"
 preserveAspectRatio="xMidYMid meet">
<metadata>
Created by potrace 1.14, written by Peter Selinger 2001-2017
</metadata>
<g transform="translate(0.000000,700.000000) scale(0.100000,-0.100000)"
fill="#000000" stroke="none">
<path d="M3278 6996 c-1 -2 -39 -6 -83 -10 -469 -36 -974 -191 -1405 -432 -78
-43 -320 -198 -358 -229 -10 -8 -53 -42 -97 -76 -426 -331 -813 -825 -1020
-1299 -25 -58 -50 -114 -55 -125 -45 -93 -150 -427 -176 -560 -2 -11 -10 -54
-19 -95 -29 -147 -35 -192 -52 -370 -15 -162 -8 -591 12 -711 2 -13 6 -46 9
-74 37 -321 160 -722 326 -1060 58 -118 169 -315 197 -350 4 -6 34 -49 65 -95
260 -389 674 -773 1113 -1032 373 -221 844 -385 1274 -444 25 -3 57 -8 71 -10
163 -25 682 -25 842 1 13 2 46 7 73 10 71 10 87 13 115 18 14 3 43 8 65 12 22
4 76 16 120 27 44 10 87 21 96 23 223 51 591 200 823 334 49 28 91 51 93 51
10 0 268 180 353 247 152 119 324 280 450 422 36 41 70 79 75 85 62 67 240
317 320 450 179 298 346 717 411 1031 16 75 54 300 60 350 4 33 9 76 11 95 8
71 10 517 3 595 -17 172 -22 220 -25 225 -2 3 -6 30 -10 60 -3 30 -10 71 -15
90 -5 19 -12 51 -15 70 -13 75 -67 275 -106 392 -349 1039 -1173 1863 -2209
2207 -174 58 -415 118 -550 136 -19 3 -46 7 -60 10 -13 2 -54 7 -90 11 -36 3
-78 8 -95 11 -33 5 -531 13 -537 9z m522 -359 c14 -3 52 -8 84 -11 77 -7 119
-14 301 -50 133 -26 388 -109 550 -178 380 -162 702 -382 1000 -682 305 -307
534 -657 695 -1060 59 -150 131 -381 146 -476 2 -14 9 -45 14 -70 18 -87 34
-194 47 -315 10 -97 10 -483 1 -580 -13 -123 -30 -238 -54 -355 -9 -41 -17
-84 -20 -95 -9 -47 -79 -276 -106 -349 -196 -534 -549 -1023 -998 -1381 -409
-326 -915 -553 -1425 -639 -208 -35 -288 -41 -535 -41 -204 0 -370 11 -470 30
-14 3 -43 7 -65 11 -90 13 -311 67 -437 108 -885 287 -1604 959 -1953 1826
-76 188 -157 474 -179 635 -4 22 -8 51 -11 65 -20 99 -30 265 -30 475 1 185 4
260 20 395 7 64 36 224 56 310 12 47 22 92 24 100 45 192 160 480 283 705 98
178 258 407 392 560 67 77 266 270 350 341 489 411 1132 677 1740 720 47 3 87
8 90 10 6 6 458 -3 490 -9z"/>
<path d="M3279 5176 c-2 -2 -50 -7 -107 -10 -57 -3 -113 -8 -125 -11 -12 -2
-42 -6 -67 -9 -114 -11 -415 -67 -552 -102 -51 -13 -88 -21 -188 -40 -14 -3
-61 -14 -105 -24 -44 -10 -236 -53 -427 -95 -371 -81 -439 -103 -527 -168
-146 -108 -227 -238 -261 -417 -5 -25 -9 -421 -9 -880 0 -780 2 -840 19 -905
37 -140 100 -243 201 -330 99 -84 184 -120 407 -170 108 -24 217 -49 242 -54
969 -219 989 -222 1070 -164 25 17 56 42 70 55 14 13 61 54 105 92 44 39 85
75 90 80 6 6 39 36 75 66 36 30 84 72 107 93 87 80 122 101 183 105 92 7 118
-6 265 -137 376 -332 402 -354 441 -374 30 -15 139 -18 189 -4 26 7 147 35
205 46 25 5 158 34 295 65 348 77 655 144 685 150 102 21 206 66 273 118 140
107 237 272 254 433 7 62 9 1591 3 1680 -8 101 -53 216 -124 312 -71 97 -147
154 -296 223 -14 7 -31 11 -95 25 -11 2 -103 22 -205 45 -233 53 -217 49 -270
60 -25 5 -88 18 -140 30 -110 25 -266 59 -295 65 -11 3 -103 22 -205 44 -176
38 -206 44 -275 55 -128 20 -160 24 -235 31 -30 3 -71 8 -90 11 -42 6 -575 15
-581 10z m576 -439 c12 -3 52 -8 90 -12 118 -11 352 -55 580 -108 28 -6 52
-12 55 -12 3 -1 21 -5 40 -9 19 -4 127 -28 240 -52 113 -25 257 -56 320 -70
134 -30 123 -28 220 -49 41 -9 82 -18 90 -20 68 -16 126 -63 153 -124 19 -44
20 -68 19 -851 0 -854 1 -833 -48 -898 -44 -57 -63 -63 -499 -158 -11 -2 -31
-6 -45 -9 -14 -3 -185 -40 -380 -83 l-355 -79 -120 106 c-66 58 -125 111 -131
116 -6 6 -39 35 -74 65 -35 30 -68 60 -74 65 -141 132 -367 192 -566 151 -134
-28 -243 -92 -396 -233 -41 -38 -104 -93 -237 -209 l-70 -61 -101 23 c-146 33
-427 95 -456 100 -14 3 -41 9 -60 14 -19 5 -46 11 -60 14 -14 2 -47 10 -75 16
-27 6 -57 13 -65 15 -37 8 -177 37 -193 40 -10 2 -26 6 -35 9 -9 3 -29 8 -44
11 -71 14 -85 17 -115 32 -39 18 -79 57 -101 98 -15 27 -17 106 -17 855 l0
825 27 45 c46 79 74 92 321 145 64 14 170 36 235 50 64 14 144 32 177 40 55
13 273 61 320 71 11 2 81 17 155 33 74 16 149 32 165 35 134 26 267 47 360 56
61 6 119 13 130 14 33 5 598 -1 620 -7z"/>
<path d="M2435 4104 c-162 -38 -257 -88 -352 -183 -335 -334 -199 -906 251
-1060 101 -34 264 -39 367 -10 270 75 460 308 474 583 18 362 -258 660 -620
672 -55 1 -109 1 -120 -2z m214 -458 c140 -89 121 -307 -34 -371 -132 -56
-278 29 -292 171 -19 181 171 297 326 200z"/>
<path d="M4322 4090 c-287 -75 -489 -342 -481 -635 8 -300 221 -552 520 -616
52 -11 216 -8 264 4 298 77 497 332 496 637 -1 95 -21 174 -71 275 -132 268
-440 410 -728 335z m258 -435 c40 -21 87 -79 99 -122 24 -87 2 -164 -64 -221
-48 -43 -78 -54 -141 -54 -153 0 -254 160 -189 300 52 112 183 155 295 97z"/>
</g>
</svg>
