<svg xmlns="http://www.w3.org/2000/svg" version="1.1" xmlns:xlink="http://www.w3.org/1999/xlink" xmlns:svgjs="http://svgjs.com/svgjs" width="100" height="100"><svg xmlns="http://www.w3.org/2000/svg" width="100" height="100" viewBox="0 0 100 100">
  <g id="SvgjsG1006" transform="translate(0 0.44)">
    <g id="SvgjsG1005" transform="translate(13 25.56)">
      <g id="SvgjsG1004" data-name="Group 1" transform="translate(0 0)">
        <path id="SvgjsPath1003" data-name="Path 2" d="M44.258,34a9.167,9.167,0,1,0,9.258,9.167A9.222,9.222,0,0,0,44.258,34Zm0,12.222a3.056,3.056,0,1,1,3.086-3.056A3.074,3.074,0,0,1,44.258,46.222Z" transform="translate(6.662 -18.728)"></path>
        <path id="SvgjsPath1002" data-name="Path 3" d="M26.258,34a9.167,9.167,0,1,0,9.258,9.167A9.222,9.222,0,0,0,26.258,34Zm0,12.222a3.056,3.056,0,1,1,3.086-3.056A3.074,3.074,0,0,1,26.258,46.222Z" transform="translate(-3.113 -18.728)"></path>
        <path id="SvgjsPath1001" data-name="Path 4" d="M74.818,29.111,57.829,25.384a60.026,60.026,0,0,0-25.591,0l-17,3.729A9.146,9.146,0,0,0,8,38.069V59.9a9.15,9.15,0,0,0,7.248,8.957L32.264,72.59l1.109.231a3.009,3.009,0,0,0,.626.066,3.1,3.1,0,0,0,2.048-.77l6.666-5.851c.046-.04.091-.082.134-.125a3.116,3.116,0,0,1,4.37,0c.043.041.089.084.134.124l6.666,5.851a3.108,3.108,0,0,0,2.676.706l18.131-3.968A9.145,9.145,0,0,0,82.066,59.9V38.069a9.148,9.148,0,0,0-7.248-8.957ZM75.894,59.9a3.052,3.052,0,0,1-2.412,2.99L56.945,66.519l-5.435-4.771a9.344,9.344,0,0,0-12.954,0l-5.435,4.771L16.592,62.893A3.057,3.057,0,0,1,14.172,59.9V38.069a3.056,3.056,0,0,1,2.41-2.991l16.99-3.728a53.752,53.752,0,0,1,22.92,0l16.981,3.726a3.057,3.057,0,0,1,2.419,2.993Z" transform="translate(-8 -24.004)"></path>
      </g>
    </g>
    <g id="SvgjsG1000" data-name="Ellipse 1" transform="translate(0 -0.44)" fill="none" stroke="#000" stroke-width="5">
      <circle cx="50" cy="50" r="50" stroke="none"></circle>
      <circle cx="50" cy="50" r="47.5" fill="none"></circle>
    </g>
  </g>
</svg><style>@media (prefers-color-scheme: light) { :root { filter: none; } }
@media (prefers-color-scheme: dark) { :root { filter: invert(100%); } }
</style></svg>